<svg width="125" height="86" fill="none" xmlns="http://www.w3.org/2000/svg"><path d="M.002 85.163l25.853-9.585 11.183 4.793v2.584l-11.183-4.181-25.853 6.39z" fill="#fff"/><path d="M.002 79.32l25.696-10.84 11.34 5.272v2.766L25.77 71.864.002 79.32z" fill="#fff"/><path d="M.002 73.496l25.532-12.091 11.503 5.75v2.948l-11.352-5.126L0 73.497h.002z" fill="#fff"/><path d="M.002 67.646l25.374-13.344 11.662 6.233v3.128l-11.432-5.597-25.604 9.58z" fill="#fff"/><path d="M.002 61.822l25.212-14.596 11.824 6.711v3.305l-11.517-6.064L.002 61.822z" fill="#fff"/><path d="M.002 55.989l25.054-15.85 11.982 7.19v3.486l-11.6-6.537L.001 55.99zm123.401-18.028L98.276 18.063 86.22 26.341v3.777L97.986 23l25.417 14.96z" fill="#fff"/><path d="M123.602 43.942l-25.417-18.7-11.965 7.842v3.686l11.693-6.717 25.689 13.889z" fill="#fff"/><path d="M123.802 49.943l-25.707-17.5-11.874 7.406v3.595l11.62-6.318 25.961 12.817z" fill="#fff"/><path d="M124.002 55.923L98.004 39.62l-11.782 6.972v3.504l11.546-5.919 26.234 11.746zm.2 6.002L97.913 46.82l-11.692 6.536v3.413l11.474-5.518 26.507 10.675z" fill="#fff"/><path d="M124.402 67.906l-26.58-13.907-11.601 6.1v3.322l11.403-5.12 26.779 9.605h-.001z" fill="#fff"/><path d="M124.6 73.908L97.731 61.2l-11.51 5.663v3.232l11.328-4.72 27.052 8.533h-.001zm.201 5.99l-27.16-11.51-11.42 5.23v3.14l11.256-4.32 27.324 7.46z" fill="#fff"/><path d="M125 85.89L97.55 75.578l-11.33 4.793v3.05L97.406 79.5 125 85.89zM36.52 23.204L61.647.691l24.69 22.513L61.43 5.774l-24.91 17.43z" fill="#fff"/><path d="M36.52 29.2L61.627 7.888 86.283 29.2 61.43 12.849 36.52 29.201z" fill="#fff"/><path d="M36.52 35.181l25.084-20.11 24.63 20.11L61.43 19.92 36.519 35.18z" fill="#fff"/><path d="M36.52 41.178l25.066-18.911L86.18 41.178 61.429 26.993l-24.91 14.185z" fill="#fff"/><path d="M36.52 47.17l25.047-17.708 24.56 17.708-24.698-13.096-24.91 13.096z" fill="#fff"/><path d="M36.52 53.167l25.03-16.51 24.521 16.51L61.43 41.148l-24.91 12.02z" fill="#fff"/><path d="M36.52 59.158L61.526 43.86l24.497 15.298-24.594-10.93-24.91 10.93z" fill="#fff"/><path d="M36.52 65.155l24.987-14.1 24.46 14.1-24.538-9.852-24.91 9.852z" fill="#fff"/><path d="M36.52 71.158L61.489 58.26l24.425 12.897-24.485-8.764-24.91 8.764z" fill="#fff"/><path d="M36.52 77.154l24.95-11.697 24.39 11.697-24.431-7.686-24.91 7.686z" fill="#fff"/><path d="M36.52 83.146l24.927-10.494 24.364 10.494-24.383-6.596-24.908 6.596z" fill="#fff"/></svg>