<svg width="125" height="86" viewBox="0 0 125 86" fill="none" xmlns="http://www.w3.org/2000/svg">
<path d="M0.00210571 85.1634L25.855 75.5781L37.0383 80.3708V82.9554L25.855 78.7739L0.00210571 85.1645V85.1634Z" fill="white"/>
<path d="M0.00210571 79.3197L25.6979 68.4807L37.0383 73.7522V76.5177L25.77 71.8638L0.00210571 79.3197Z" fill="white"/>
<path d="M0.00215218 73.4962L25.5344 61.4048L37.0372 67.1551V70.1035L25.685 64.9772L0 73.4973L0.00215218 73.4962Z" fill="white"/>
<path d="M0.00210571 67.6457L25.3762 54.3018L37.0383 60.5352V63.6633L25.6064 58.0657L0.00210571 67.6457Z" fill="white"/>
<path d="M0.00210571 61.8223L25.2137 47.2258L37.0383 53.9371V57.2416L25.5214 51.1781L0.00210571 61.8223Z" fill="white"/>
<path d="M0.00195312 55.989L25.0564 40.1389L37.0381 47.329V50.8154L25.4373 44.2784L0.00195312 55.989Z" fill="white"/>
<path d="M123.403 37.9611L98.2757 18.063L86.2208 26.341V30.1178L97.9862 23.0009L123.403 37.9611Z" fill="white"/>
<path d="M123.602 43.9417L98.185 25.2412L86.2205 33.0845V36.7699L97.9128 30.0533L123.602 43.9417Z" fill="white"/>
<path d="M123.802 49.9428L98.0949 32.4421L86.2208 39.8485V43.4436L97.8409 37.1261L123.802 49.9428Z" fill="white"/>
<path d="M124.002 55.9234L98.0044 39.6204L86.2218 46.592V50.0956L97.7677 44.1774L124.002 55.9234Z" fill="white"/>
<path d="M124.202 61.9255L97.913 46.8201L86.2208 53.3559V56.7691L97.6946 51.2512L124.202 61.9255Z" fill="white"/>
<path d="M124.402 67.906L97.8225 53.9993L86.2207 60.0993V63.4211L97.6235 58.3013L124.403 67.906H124.402Z" fill="white"/>
<path d="M124.6 73.9082L97.731 61.2002L86.2207 66.8634V70.0947L97.5492 65.3752L124.601 73.9082H124.6ZM124.801 79.8985L97.6407 68.3881L86.2207 73.6177V76.7586L97.4771 72.4373L124.801 79.8985Z" fill="white"/>
<path d="M125 85.89L97.5503 75.5784L86.2206 80.371V83.4216L97.405 79.4995L125 85.89Z" fill="white"/>
<path d="M36.5199 23.204L61.6465 0.691162L86.3373 23.204L61.4291 5.77437L36.5199 23.204Z" fill="white"/>
<path d="M36.5195 29.2009L61.6278 7.88672L86.2831 29.2009L61.4287 12.8494L36.5195 29.2009Z" fill="white"/>
<path d="M36.5195 35.1814L61.6041 15.0713L86.2346 35.1814L61.4287 19.9188L36.5195 35.1814Z" fill="white"/>
<path d="M36.5195 41.1782L61.5858 22.2668L86.1797 41.1782L61.4287 26.9928L36.5195 41.1782Z" fill="white"/>
<path d="M36.5195 47.1697L61.5675 29.4624L86.1259 47.1697L61.4287 34.0743L36.5195 47.1697Z" fill="white"/>
<path d="M36.5195 53.1674L61.5492 36.6577L86.0711 53.1674L61.4287 41.148L36.5195 53.1674Z" fill="white"/>
<path d="M36.5195 59.1576L61.5256 43.8596L86.0227 59.1576L61.4287 48.2283L36.5195 59.1576Z" fill="white"/>
<path d="M36.5195 65.1553L61.5073 51.0549L85.9678 65.1553L61.4287 55.3031L36.5195 65.1553Z" fill="white"/>
<path d="M36.5195 71.1578L61.489 58.2615L85.914 71.1578L61.4287 62.3945L36.5195 71.1578Z" fill="white"/>
<path d="M36.5195 77.1544L61.4707 65.4568L85.8591 77.1544L61.4287 69.4683L36.5195 77.1544Z" fill="white"/>
<path d="M36.5195 83.1459L61.447 72.6523L85.8107 83.1459L61.4277 76.5497L36.5195 83.1459Z" fill="white"/>
</svg>
